<?xml version="1.0" encoding="utf-8"?>
<!-- Generator: Adobe Illustrator 24.2.3, SVG Export Plug-In . SVG Version: 6.00 Build 0)  -->
<svg version="1.1" id="OBJECTS" xmlns="http://www.w3.org/2000/svg" xmlns:xlink="http://www.w3.org/1999/xlink" x="0px" y="0px"
	 viewBox="0 0 689.66 416.38" style="enable-background:new 0 0 689.66 416.38;" xml:space="preserve">
<style type="text/css">
	.st0{opacity:0.4;}
	.st1{opacity:0.2;}
	.st2{fill:#FEFEF4;}
	.st3{fill:#690094;}
	.st4{fill:none;stroke:#FEFEF4;stroke-width:1.9411;stroke-miterlimit:10;}
	.st5{fill:none;stroke:#FEFEF4;stroke-width:1.4768;stroke-miterlimit:10;}
	.st6{fill:none;stroke:#FEFEF4;stroke-width:4.522;stroke-miterlimit:10;}
	.st7{fill:none;stroke:#FEFEF4;stroke-width:1.4304;stroke-miterlimit:10;}
	.st8{fill:none;stroke:#000000;stroke-width:1.5516;stroke-miterlimit:10;}
	.st9{fill:#F26E5A;}
	.st10{fill:none;stroke:#DB5749;stroke-width:1.5;stroke-miterlimit:10;}
	.st11{fill:none;stroke:#FCE7E4;stroke-width:1.5516;stroke-miterlimit:10;}
	.st12{fill:#DB5749;}
	.st13{fill:none;stroke:#000000;stroke-width:1.2385;stroke-linecap:round;stroke-linejoin:round;stroke-miterlimit:10;}
</style>
<path class="st0" d="M567.67,114.99h-81c-6.76,0-12.24-5.48-12.24-12.24V37.42c0-6.76,5.48-12.24,12.24-12.24h81
	c6.76,0,12.24,5.48,12.24,12.24v65.34C579.91,109.51,574.43,114.99,567.67,114.99z"/>
<path class="st1" d="M486.67,114.99c-6.76,0-12.24-5.48-12.24-12.24V69.31H176.57c-3.95,0-7.15,3.2-7.15,7.15v46.37h4.17
	c2.44,0,4.42,1.98,4.42,4.42c0,2.44-1.98,4.42-4.42,4.42h-4.17v94.56h73.76c5.72,0,10.35,4.64,10.35,10.35v66.93
	c0,5.72-4.64,10.35-10.35,10.35h-73.76v46.61c0,3.95,3.2,7.15,7.15,7.15h341.01c3.95,0,7.15-3.2,7.15-7.15v-245.5H486.67z"/>
<path class="st2" d="M474.53,104.24H169.42v1.94h305.51C474.74,105.55,474.61,104.91,474.53,104.24z"/>
<path class="st0" d="M243.18,313.88H62.63c-5.72,0-10.35-4.64-10.35-10.35v-66.93c0-5.72,4.64-10.35,10.35-10.35h180.55
	c5.72,0,10.35,4.64,10.35,10.35v66.93C253.54,309.24,248.9,313.88,243.18,313.88z"/>
<path class="st0" d="M384.44,13.45H309.9c-2.5,0-4.53-2.03-4.53-4.53l0,0c0-2.5,2.03-4.53,4.53-4.53h74.55
	c2.5,0,4.53,2.03,4.53,4.53l0,0C388.97,11.42,386.94,13.45,384.44,13.45z"/>
<path class="st3" d="M110.12,190.03H96.97c-3.46,0-6.26-2.8-6.26-6.26v-12.35c0-3.46,2.8-6.26,6.26-6.26h13.15
	c3.46,0,6.26,2.8,6.26,6.26v12.35C116.38,187.23,113.58,190.03,110.12,190.03z"/>
<path class="st0" d="M492.76,409.29h-7.18c-1.89,0-3.41-1.53-3.41-3.41v-6.74c0-1.89,1.53-3.41,3.41-3.41h7.18
	c1.89,0,3.41,1.53,3.41,3.41v6.74C496.17,407.77,494.64,409.29,492.76,409.29z"/>
<path class="st3" d="M621.47,121.6h-7.18c-1.89,0-3.41-1.53-3.41-3.41v-6.74c0-1.89,1.53-3.41,3.41-3.41h7.18
	c1.89,0,3.41,1.53,3.41,3.41v6.74C624.89,120.07,623.36,121.6,621.47,121.6z"/>
<polygon class="st2" points="119.65,329.76 83.41,348.53 93.85,353.59 80.88,369.09 91,377.37 103.52,360.73 111.92,369.73 "/>
<path class="st0" d="M245.83,407.87h-42.34c-3.14,0-5.68-2.54-5.68-5.68l0,0c0-3.14,2.54-5.68,5.68-5.68h42.34
	c3.14,0,5.68,2.54,5.68,5.68l0,0C251.51,405.32,248.97,407.87,245.83,407.87z"/>
<circle class="st4" cx="199.45" cy="87.63" r="5.01"/>
<circle class="st4" cx="218.92" cy="87.63" r="5.01"/>
<circle class="st4" cx="238.39" cy="87.63" r="5.01"/>
<path class="st5" d="M76.68,242.51c0,2.1-1.71,3.81-3.81,3.81c-2.1,0-3.81-1.71-3.81-3.81c0-2.1,1.71-3.81,3.81-3.81
	C74.98,238.7,76.68,240.4,76.68,242.51z"/>
<circle class="st5" cx="87.68" cy="242.51" r="3.81"/>
<circle class="st5" cx="102.49" cy="242.51" r="3.81"/>
<line class="st5" x1="52.28" y1="256.93" x2="253.54" y2="256.93"/>
<path class="st2" d="M520.51,80.3c-10.05,0-18.23-8.18-18.23-18.23c0-10.05,8.18-18.23,18.23-18.23c10.05,0,18.23,8.18,18.23,18.23
	C538.74,72.12,530.56,80.3,520.51,80.3z M520.51,47.98c-7.77,0-14.1,6.32-14.1,14.1c0,7.77,6.32,14.1,14.1,14.1
	c7.77,0,14.1-6.32,14.1-14.1C534.61,54.3,528.29,47.98,520.51,47.98z"/>
<rect x="532.55" y="72.41" transform="matrix(0.7071 -0.7071 0.7071 0.7071 102.694 400.3487)" class="st2" width="4.13" height="7.61"/>
<path class="st2" d="M541.53,76.67l10.65,10.65c1.13,1.13,1.13,2.96,0,4.09l-2.37,2.37c-1.13,1.13-2.96,1.13-4.09,0l-10.65-10.65
	c-1.13-1.13-1.13-2.96,0-4.09l2.37-2.37C538.57,75.54,540.4,75.54,541.53,76.67z"/>
<path class="st3" d="M138.5,86.83H91.95c-7.81,0-14.13-6.33-14.13-14.13V33.22c0-7.8,6.33-14.13,14.13-14.13h46.55
	c7.81,0,14.13,6.33,14.13,14.13V72.7C152.63,80.51,146.31,86.83,138.5,86.83z"/>
<path class="st2" d="M115.23,67.56c-8.74,0-15.85-7.11-15.85-15.85c0-8.74,7.11-15.85,15.85-15.85s15.85,7.11,15.85,15.85
	C131.07,60.45,123.96,67.56,115.23,67.56z M115.23,40.62c-6.11,0-11.09,4.97-11.09,11.09c0,6.11,4.97,11.09,11.09,11.09
	s11.09-4.97,11.09-11.09C126.31,45.59,121.34,40.62,115.23,40.62z"/>
<line class="st6" x1="124.57" y1="40.62" x2="106.39" y2="62.79"/>
<path class="st3" d="M636.36,325.15H467.72c-7.21,0-13.05-5.84-13.05-13.05V186.27c0-7.21,5.84-13.05,13.05-13.05h168.64
	c7.21,0,13.05,5.84,13.05,13.05v125.84C649.41,319.31,643.56,325.15,636.36,325.15z"/>
<g>
	<path class="st2" d="M516.89,278.64v-12.28h-20.94v-4.02l20.11-28.78h6.59v28.02h6.31v4.79h-6.31v12.28H516.89z M516.89,261.58
		v-15.05c0-2.36,0.07-4.72,0.21-7.07h-0.21c-1.39,2.64-2.5,4.58-3.75,6.66l-11.03,15.33v0.14H516.89z"/>
	<path class="st2" d="M563.57,255.61c0,15.33-5.69,23.79-15.67,23.79c-8.81,0-14.77-8.25-14.91-23.16
		c0-15.12,6.52-23.44,15.67-23.44C558.16,232.79,563.57,241.26,563.57,255.61z M539.08,256.3c0,11.72,3.61,18.38,9.15,18.38
		c6.24,0,9.22-7.28,9.22-18.79c0-11.1-2.84-18.38-9.15-18.38C542.97,237.51,539.08,244.03,539.08,256.3z"/>
	<path class="st2" d="M588.05,278.64v-12.28h-20.94v-4.02l20.11-28.78h6.59v28.02h6.31v4.79h-6.31v12.28H588.05z M588.05,261.58
		v-15.05c0-2.36,0.07-4.72,0.21-7.07h-0.21c-1.39,2.64-2.5,4.58-3.75,6.66l-11.03,15.33v0.14H588.05z"/>
</g>
<circle class="st7" cx="474.82" cy="187.56" r="3.69"/>
<circle class="st7" cx="489.17" cy="187.56" r="3.69"/>
<circle class="st7" cx="503.51" cy="187.56" r="3.69"/>
<line class="st7" x1="454.67" y1="202.96" x2="649.41" y2="202.96"/>
<path class="st3" d="M365.64,261.56l-0.74-10.03l-62.55,3.07v9.68c0,0-14.07,13.38-19.62,102.43h112.59
	C395.32,366.71,407.67,287.91,365.64,261.56z"/>
<g>
	<line class="st8" x1="302.35" y1="264.29" x2="365.64" y2="261.56"/>
	<polyline class="st8" points="315.28,305.34 328.25,310.62 335.19,366.71 	"/>
</g>
<g>
	<g>
		<g>
			<path class="st9" d="M233.97,242.17l17.28-57.04l38.01,14.25L271.02,254c-3.74,11.28-16.63,16.61-27.24,11.24
				C235.33,260.97,231.19,251.22,233.97,242.17z"/>
			<path class="st2" d="M260.63,154.66c3.42-11.12,15.36-17.21,26.37-13.45c10.7,3.66,16.47,15.25,12.91,25.99l-10.65,32.16
				l-38.01-14.25L260.63,154.66z"/>
		</g>
		<g>
			<path class="st9" d="M263.32,237.89l-43.41-82.31c0,0,0.99-14.87-23.71-15.76l0.01,0.02c-0.34-0.02-0.67-0.05-1.01-0.05h-8.26
				c-1.53,0-2.93,1.08-3.14,2.6c-0.24,1.76,0.99,3.27,2.64,3.48l8.33,1.18l-11.33,3.02l-2.12,0.78l-15.43-10.2
				c-1.23-0.88-2.95-0.47-3.66,0.86c-0.56,1.05-0.31,2.34,0.6,3.1c0.95,0.79,2.49,2.11,4.16,3.55l-3.41-2.04
				c-1.3-0.78-2.98-0.24-3.58,1.15c-0.47,1.09-0.12,2.35,0.85,3.04c0.83,0.59,1.9,1.34,3.04,2.14l-1.18-0.46
				c-1.3-0.51-2.83-0.14-3.63,1.01c-1.08,1.56-0.43,3.68,1.28,4.39l16.86,7.06c2.91,1.22,5.69,1.98,9.12,1.17l15.03-3.54L235,256.21
				L263.32,237.89z"/>
			<line class="st10" x1="245.5" y1="204.11" x2="253.54" y2="219.34"/>
		</g>
	</g>
	<g>
		<path class="st2" d="M294.42,140.31l-16.14,1.21c0,0-23.36,31.69,24.07,113.09l62.55-3.07l4.71-87.7l-7.72-24.9h-28.02
			L294.42,140.31z"/>
		<path class="st11" d="M276.11,194.44c0,0-4.65-9.79-1.66-31.47"/>
	</g>
	<g>
		<g>
			<path class="st9" d="M421.29,230.72l-25.98-53.64L360,197.08l26.54,51.11c5.45,10.56,19.02,13.81,28.66,6.85
				C422.89,249.5,425.46,239.23,421.29,230.72z"/>
			<g>
				<path class="st2" d="M381.3,148.45c-5.12-10.45-17.86-14.6-28.15-9.16c-10,5.28-13.88,17.64-8.69,27.69L360,197.08l35.32-20.01
					L381.3,148.45z"/>
				<line class="st11" x1="360" y1="197.08" x2="347.17" y2="172.23"/>
			</g>
		</g>
		<g>
			<path class="st9" d="M475.51,138.95c-0.79-1.15-2.33-1.51-3.63-1.01l-7.55,2.94l7.09-6c1.17-0.99,1.5-2.75,0.62-4
				c-1.02-1.44-2.97-1.66-4.26-0.61l-6.59,5.31l5.62-7.35c0.93-1.22,0.88-3.01-0.26-4.04c-1.3-1.19-3.25-0.98-4.3,0.31l-11.1,11.52
				l-11.33-3.02l8.33-1.18c1.65-0.21,2.89-1.72,2.64-3.48c-0.21-1.52-1.61-2.6-3.14-2.6h-8.26c-4.88,0-9.64,1.7-13.25,4.94
				c-0.06,0.05-0.12,0.08-0.18,0.13c-5.07,4-3.22,12.19-3.22,12.19l-31.11,88.08l30.83,13.68l17.77-94.59l11.35,0.02
				c0.7,0.07,1.41,0.06,2.12,0l0.09,0l-0.01,0c1.22-0.11,2.43-0.4,3.58-0.88l16.86-5.97C475.94,142.62,476.59,140.5,475.51,138.95z"
				/>
			<line class="st10" x1="403.73" y1="194.44" x2="397.01" y2="217.9"/>
		</g>
	</g>
</g>
<g>
	<path d="M293.17,67.65c-1.94,1.33-14.98,4.72-15.24,7.09c0,0,4.29,16.77-0.1,19.9c-11.88,8.46-15.68,25.05-15.68,25.05
		s31.34,23.47,114.64-1.17c0,0,1-9.98-14.15-17.22c-4.32-2.07-8.17-5.18-10.6-9.42c-1.88-3.28-2.17-4.67-2.67-7.61
		C347.96,76.04,325.27,45.63,293.17,67.65z"/>
	<path class="st12" d="M294.4,92.79c0.38,5.5-3.77,10.28-9.27,10.66c-5.5,0.38-10.28-3.77-10.66-9.27
		c-0.38-5.5,3.77-10.28,9.27-10.66C289.24,83.13,294.01,87.28,294.4,92.79z"/>
	<path class="st9" d="M298.91,117.26l1.38,21.73c0.47,7.63,3.59,12.83,11.1,12.31l0,0c6.41-0.45,14.03-5.58,14.38-11.99l-3.82-34.09
		L298.91,117.26z"/>
	<path class="st9" d="M294.42,140.31l39.44-1.37c0,0-0.96,19.39-24.4,17.58C293.17,155.25,294.42,140.31,294.42,140.31z"/>
	<polygon class="st12" points="300.05,135.16 325.26,110.51 298.72,115.03 	"/>
	<path class="st9" d="M305.52,120.77L305.52,120.77c-12.84,0.04-23.44-10.07-23.82-20.55l-0.76-24.74
		c-0.48-13.14,9.55-24.29,22.66-25.2l0,0c13.42-0.93,27.42,9.03,28.35,22.45l0.39,19.9C332.65,108.03,320.88,119.7,305.52,120.77z"
		/>
	<g>
		<polyline class="st13" points="295.16,91.51 294.42,97.65 297.59,97.77 		"/>
		<path d="M307.84,76.52c0,0-7.09-0.58-7.16,2.3c0,0,0.01,1.95,6.19,2.34c6.19,0.39,7.8-0.07,8.36-1.9
			C315.8,77.43,311.17,76.54,307.84,76.52z"/>
		<path d="M287.29,80.74c0,0,5.37-0.43,5.88,2.16c0,0,0.3,1.76-4.4,2.03c-4.7,0.27-6.16-0.31-6.25-1.8
			C282.4,81.35,284.73,80.71,287.29,80.74z"/>
		<path d="M290.4,89.17c0.04,1.25-0.94,2.3-2.19,2.34c-1.25,0.04-2.3-0.94-2.34-2.19c-0.04-1.25,0.94-2.3,2.19-2.34
			C289.31,86.93,290.36,87.92,290.4,89.17z"/>
		<path d="M309.46,88.54c0.04,1.25-0.94,2.3-2.19,2.34c-1.25,0.04-2.3-0.94-2.34-2.19c-0.04-1.25,0.94-2.3,2.19-2.34
			C308.37,86.31,309.42,87.29,309.46,88.54z"/>
		<path class="st13" d="M302.82,102.04c0,0-3.35-1.53-7.41,1.97"/>
	</g>
	<path d="M311.55,46.03c-3.2-0.17-6.43,0.18-9.52,1.01c-7.69,2.05-21.49,7.74-23.86,22.51c-0.79,3.89-0.24,5.2-0.24,5.2
		s25.78,1.01,41.03-6.19c2.19,9.29,4.22,15.04,13.4,24.08l8.15-12.24l9.17,8.22C349.73,88.93,349.71,48.06,311.55,46.03z"/>
	<g>
		<path class="st9" d="M345.73,92.89c0.38,5.5-3.77,10.28-9.27,10.66c-5.5,0.38-10.28-3.77-10.66-9.27
			c-0.38-5.5,3.77-10.28,9.27-10.66C340.57,83.23,345.34,87.38,345.73,92.89z"/>
		<path class="st13" d="M331.95,96.44c0,0-0.5-7.22,6.48-6.57"/>
	</g>
</g>
<path class="st0" d="M173.59,131.68H59.17c-2.44,0-4.42-1.98-4.42-4.42l0,0c0-2.44,1.98-4.42,4.42-4.42h114.43
	c2.44,0,4.42,1.98,4.42,4.42l0,0C178.01,129.7,176.03,131.68,173.59,131.68z"/>
</svg>
