<?xml version="1.0" encoding="utf-8"?>
<!-- Generator: Adobe Illustrator 24.2.3, SVG Export Plug-In . SVG Version: 6.00 Build 0)  -->
<svg version="1.1" id="Capa_1" xmlns="http://www.w3.org/2000/svg" xmlns:xlink="http://www.w3.org/1999/xlink" x="0px" y="0px"
	 viewBox="0 0 512 512" style="enable-background:new 0 0 512 512;" xml:space="preserve">
<style type="text/css">
	.st0{fill:#F2BB16;}
	.st1{fill:#C8BEB9;}
	.st2{fill:#AAAAAA;}
	.st3{fill:#B4AAAA;}
	.st4{fill:#8C8787;}
	.st5{fill:#736E6E;}
	.st6{fill:#5A5555;}
	.st7{fill:#9B9B9B;}
	.st8{fill:#464141;}
	.st9{fill:#464646;}
</style>
<path class="st0" d="M507.4,256c0,138-111.6,251.4-251.4,251.4C116.6,507.4,4.6,394.3,4.6,256C4.6,117.1,117.1,4.6,256,4.6
	C395.1,4.6,507.4,117.4,507.4,256z"/>
<g>
	
		<rect x="81.4" y="235.9" transform="matrix(0.7071 -0.7071 0.7071 0.7071 -106.0703 255.9798)" class="st1" width="349.1" height="40.2"/>
	<polygon class="st2" points="393.7,146.8 146.8,393.7 136.4,383.2 383.2,136.4 	"/>
	<path class="st3" d="M338.7,215.3L215.3,338.7c-4.8,4.8-12.6,4.8-17.4,0l-24.6-24.6c-4.8-4.8-4.8-12.6,0-17.4l123.4-123.4
		c4.8-4.8,12.6-4.8,17.4,0l24.6,24.6C343.5,202.7,343.5,210.5,338.7,215.3z"/>
	<path class="st4" d="M477.3,139.4l-37.7,37.7c-10.5,10.5-27.6,10.5-38.2,0l-66.6-66.6c-10.5-10.5-10.5-27.6,0-38.2l37.7-37.7
		c10.5-10.5,27.6-10.5,38.2,0l66.6,66.6C487.9,111.8,487.9,128.9,477.3,139.4z"/>
	<g>
		<path class="st5" d="M477.3,139.4l-37.7,37.7c-10.5,10.5-27.6,10.5-38.2,0l-19-19.1c34.8-12.9,63.8-37.7,82.2-69.5l12.7,12.7
			C487.9,111.8,487.9,128.9,477.3,139.4z"/>
		<path class="st5" d="M177.1,439.7l-37.7,37.7c-10.5,10.5-27.6,10.5-38.2,0l-66.6-66.6c-10.5-10.5-10.5-27.6,0-38.2l37.7-37.7
			c10.5-10.5,27.6-10.5,38.2,0l66.6,66.6C187.6,412,187.6,429.1,177.1,439.7z"/>
	</g>
	<g>
		<path class="st6" d="M177.1,439.7l-37.7,37.7c-10.5,10.5-27.6,10.5-38.2,0l-40.6-40.6c13.8,4.1,28.5,6.4,43.7,6.4
			c29.7,0,57.3-8.5,80.7-23.2C185.2,427,182.5,434.2,177.1,439.7z"/>
		<path class="st6" d="M224.6,433.2L177,480.8c-7.8,7.8-20.5,7.8-28.3,0L31.2,363.2c-7.8-7.8-7.8-20.5,0-28.3l47.6-47.6
			c7.8-7.8,20.5-7.8,28.3,0L224.6,405C232.4,412.8,232.4,425.4,224.6,433.2z"/>
		<path class="st6" d="M480.8,177.1l-47.6,47.6c-7.8,7.8-20.5,7.8-28.3,0L287.4,107c-7.8-7.8-7.8-20.5,0-28.3L335,31.1
			c7.8-7.8,20.5-7.8,28.3,0l117.6,117.6C488.6,156.6,488.6,169.3,480.8,177.1z"/>
	</g>
	<path class="st7" d="M338.7,215.3L215.3,338.7c-4.8,4.8-12.6,4.8-17.4,0l-8.8-8.8c-1.9-1.9-1.4-5.2,1.1-6.4
		c25.6-11.9,53-31.4,78-57.1c23.6-24.2,41.6-50.3,53-74.9c1.7-3.7,6.6-4.6,9.5-1.7l8,8C343.5,202.7,343.5,210.5,338.7,215.3z"/>
	<path class="st8" d="M480.8,177.1l-47.6,47.6c-7.8,7.8-20.5,7.8-28.3,0L368.3,188c36.5-9.9,67.8-32.5,88.9-62.8l23.6,23.6
		C488.6,156.6,488.6,169.3,480.8,177.1z"/>
	<path class="st9" d="M224.6,433.2L177,480.8c-7.8,7.8-20.5,7.8-28.3,0l-57.3-57.3c7.1,1,14.4,1.5,21.8,1.5
		c36.7,0,70.4-13.1,96.7-34.8l14.7,14.7C232.4,412.8,232.4,425.4,224.6,433.2z"/>
</g>
</svg>
