<?xml version="1.0" encoding="utf-8"?>
<!-- Generator: Adobe Illustrator 24.2.3, SVG Export Plug-In . SVG Version: 6.00 Build 0)  -->
<svg version="1.1" id="Layer_1" xmlns="http://www.w3.org/2000/svg" xmlns:xlink="http://www.w3.org/1999/xlink" x="0px" y="0px"
	 viewBox="0 0 163.3 145.8" style="enable-background:new 0 0 163.3 145.8;" xml:space="preserve">
<style type="text/css">
	.st0{fill:#04D361;}
	.st1{fill:#FFFFFF;}
	.st2{opacity:0.5;}
</style>
<g transform="translate(0 0)">
	<g transform="translate(42.948 0)">
		<g transform="translate(0 0)">
			<path class="st0" d="M66,16.8c-8.1-4.5-16.3-9-24.4-13.5c-1.7-0.9-3.7-0.9-5.3,0c-8.1,4.5-16.2,9-24.3,13.5
				c-1.6,0.8-2.6,2.5-2.7,4.3v27.1c0,1.9,1.1,3.5,2.8,4.4c2.3,1.2,4.5,2.5,6.7,3.7l13.3,7.3l4.1,2.3c0.3,0.2,0.6,0.3,0.9,0.4
				l0.4,0.2h0.1c1.4,0.4,2.8,0.2,4.1-0.4c8.1-4.5,16.2-9,24.3-13.5c1.7-0.8,2.7-2.5,2.8-4.4V21.1C68.5,19.3,67.5,17.7,66,16.8z
				 M30.9,47.2L24.5,53c-0.1,0.1-0.2,0.1-0.3,0.1h-0.1C24,53.1,24,53,24,52.9c0,0,0,0,0-0.1l2.3-8.3c0.2-0.9,0.9-1.7,1.8-2l0.1-0.1
				c0.2-0.1,0.5,0,0.7,0.1c0.4,0.3,0.7,0.5,1.1,0.8c0.4,0.3,0.8,0.5,1.2,0.7c0.2,0.1,0.4,0.3,0.4,0.6l0.2,0.2
				C31.9,45.7,31.5,46.6,30.9,47.2L30.9,47.2z M37.4,41.4c-0.1,0-0.1,0.1-0.2,0.1l-2-0.2c-0.2,0-0.4,0-0.6,0.2l-2.2,2
				c-0.1,0.1-0.2,0.1-0.3,0.1c-1.1-0.5-2.1-1.1-3-1.8c-0.1-0.1-0.2-0.2-0.1-0.3l0.7-2.9c0.1-0.2,0-0.4-0.1-0.6l-1.1-1.7
				c0-0.1-0.1-0.1-0.1-0.2c0-0.2,0.1-0.4,0.1-0.7v-0.1l0,0c0,0,0.1-0.1,0.1,0c0.9,0.6,4.6,2.9,4.6,2.9s3.8,2.3,4.6,2.9
				c0.1,0.1,0.1,0.2,0.1,0.3L37.4,41.4z M50.6,23.3l0.1,0.1l2,0.3h0.1c0.4,0.1,0.9,0.6,0.2,1.5l-8.3,11.3c-0.1,0.1-0.3,0.1-0.4,0.1
				l-3.4-2.1c-0.3-0.2-0.8-0.2-1.1,0l-1.1,0.7c-0.3,0.2-0.8,0.2-1.1,0c-0.6-0.5-1.5-0.4-2.1,0.2c-1.4,1.1-3.4,1.2-4.8,0.2l-4.5-2.8
				l-0.2-0.2l0,0c-0.5-0.5-0.6-1.3-0.2-1.8c0,0,0,0,0.1-0.1l0,0c0.4-0.7,1.3-0.9,2-0.5l0.9,0.5H29c0.1,0.1,0.2,0,0.2-0.1l0.2-1.2
				c0-0.1,0-0.2-0.1-0.2l-0.2-0.1c-0.4-0.3-0.5-0.8-0.3-1.2c0.2-0.4,0.7-0.5,1.1-0.3l6,3.7H36c0.1,0.1,0.2,0,0.3-0.1l6.2-8.5
				c0.3-0.3,0.7-0.5,1.1-0.4l1.6,0.2l1.1,0.2c0,0.1,0.1,0,0.1,0c0.1-0.1,0.1-0.1,0-0.1c-0.4-0.3-0.5-0.9-0.2-1.3l2.1-2.9
				c0.2-0.3,0.6-0.4,1-0.4l4,0.6c0.2,0,0.3,0.1,0.4,0.2l0.1,0.1c0.2,0.2,0.1,0.5-0.1,0.7c0,0-2,2.7-2.7,3.7v0.1
				C50.4,23.1,50.4,23.2,50.6,23.3L50.6,23.3z"/>
			<path class="st1" d="M47,6.4c3.1-2.4,4.7-2.9,7.3-2.9c0.8,0,1.5,0.2,2.2,0.5c2.3,1.3,3.3,5.1,2.6,10.7l3.3,1.8
				C63.4,8.6,61.9,3.2,58.1,1c-1.2-0.7-2.6-1-4-1c-3.5,0-6.2,1-10.6,4.5C44.8,5.1,45.9,5.8,47,6.4z"/>
			<path class="st1" d="M9.2,41c-4.6-2.2-5.6-4-5.6-6.4c0-2.6,2.6-5,7.2-7.2v-4C3.9,26.3,0,30.3,0,34.5c0,4.4,2.3,7.4,9.2,10.3
				L9.2,41z"/>
			<path class="st1" d="M18.4,13.2c-0.6-5.4,0.4-7.7,2.8-9c0.7-0.4,1.4-0.6,2.2-0.5c2.6,0,5.5,1.4,8.6,3.8l3.3-1.8
				c-4.3-3.5-8.5-5.4-12-5.4c-1.4,0-2.7,0.3-4,1c-3.9,2.3-5.4,6-4.3,13.9C16.2,14.3,17.3,13.7,18.4,13.2z"/>
			<path class="st1" d="M68.4,24.4v3.8c4.6,2.2,5.6,4,5.6,6.4c0,2.6-2.6,5-7.2,7.2v4c6.9-2.9,10.8-6.8,10.8-11.1
				C77.6,30.4,75.5,27.3,68.4,24.4z"/>
			<path class="st1" d="M30.8,62.7c-3.1,2.4-4.7,2.9-7.3,2.9c-0.8,0-1.5-0.2-2.2-0.5c-2.4-1.3-3.3-5.2-2.6-10.7
				c-1.1-0.6-2.3-1.2-3.4-1.9c-1.1,7.8,0.4,13.3,4.2,15.4c1.2,0.7,2.6,1,4,1c3.5,0.1,6.3-0.9,10.7-4.4L30.8,62.7z"/>
			<path class="st1" d="M59.2,56.1c0.6,5.4-0.5,7.7-2.8,9c-0.7,0.4-1.4,0.6-2.2,0.5c-2.6,0-5.5-1.4-8.7-3.8
				c-1.1,0.6-2.2,1.2-3.4,1.8c4.4,3.6,8.5,5.5,12.1,5.5c1.4,0,2.7-0.3,4-1c3.9-2.3,5.5-6,4.3-13.9C61.5,54.8,60.3,55.4,59.2,56.1z"
				/>
		</g>
	</g>
	<g transform="translate(34.249 137.326)" class="st2">
		<g transform="translate(0 0)">
			<path class="st1" d="M0,8.3V0.1h2.9c0.8-0.1,1.6,0.1,2.3,0.6c0.5,0.4,0.8,1,0.8,1.7c0,0.4-0.1,0.7-0.3,1.1C5.4,3.7,5.1,4,4.8,4.1
				c0.4,0.1,0.8,0.3,1,0.6C6,5.1,6.1,5.5,6.1,5.9c0,0.7-0.2,1.4-0.8,1.8C4.7,8.2,4,8.4,3.2,8.3L0,8.3z M1.7,4.8V7h1.5
				c0.3,0,0.7-0.1,0.9-0.3c0.2-0.2,0.4-0.5,0.3-0.8c0.1-0.6-0.3-1.1-0.9-1.1c-0.1,0-0.2,0-0.3,0L1.7,4.8z M1.7,3.6H3
				c0.9,0,1.3-0.4,1.3-1c0-0.3-0.1-0.6-0.3-0.8c-0.3-0.2-0.7-0.3-1-0.2H1.7L1.7,3.6z M18.8,4.4c0,0.7-0.1,1.5-0.4,2.1
				c-0.3,0.6-0.7,1.1-1.2,1.4c-0.6,0.3-1.2,0.5-1.8,0.5c-0.6,0-1.3-0.2-1.8-0.5c-0.5-0.3-1-0.8-1.2-1.4c-0.3-0.7-0.5-1.4-0.4-2.1
				V4.1c0-0.7,0.1-1.5,0.4-2.1c0.3-0.6,0.7-1.1,1.2-1.4C14.1,0.2,14.7,0,15.3,0c0.6,0,1.3,0.2,1.8,0.5c0.5,0.3,1,0.8,1.2,1.4
				c0.3,0.7,0.5,1.4,0.4,2.1L18.8,4.4z M17.1,4c0-0.7-0.1-1.4-0.5-2c-0.3-0.4-0.8-0.7-1.3-0.7c-0.5,0-1,0.2-1.3,0.7
				c-0.3,0.6-0.5,1.3-0.5,1.9v0.4c0,0.7,0.1,1.4,0.5,2c0.3,0.5,0.8,0.7,1.3,0.7c0.5,0,1-0.2,1.3-0.7c0.3-0.6,0.5-1.3,0.5-2V4z
				 M31.5,4.4c0,0.7-0.1,1.5-0.4,2.1c-0.3,0.6-0.7,1.1-1.2,1.4c-0.6,0.3-1.2,0.5-1.8,0.5c-0.6,0-1.3-0.2-1.8-0.5
				c-0.5-0.3-1-0.8-1.2-1.4c-0.3-0.7-0.5-1.4-0.4-2.1V4.1c0-0.7,0.1-1.5,0.4-2.1c0.3-0.6,0.7-1.1,1.2-1.4C26.8,0.2,27.4,0,28,0
				c0.6,0,1.3,0.2,1.8,0.5c0.5,0.3,1,0.8,1.2,1.4c0.3,0.7,0.5,1.4,0.4,2.1L31.5,4.4z M29.8,4c0-0.7-0.1-1.4-0.5-2
				c-0.3-0.4-0.8-0.7-1.3-0.7c-0.5,0-1,0.2-1.3,0.7c-0.3,0.6-0.5,1.3-0.5,1.9v0.4c0,0.7,0.1,1.4,0.5,2C27,6.8,27.5,7.1,28,7.1
				c0.5,0,1-0.2,1.3-0.7c0.3-0.6,0.5-1.3,0.5-2V4z M43.2,1.5h-2.5v6.9H39V1.5h-2.5V0.1h6.7L43.2,1.5z M55.1,5.6c0,0.8-0.4,1.6-1,2.1
				c-0.7,0.5-1.5,0.8-2.3,0.8c-0.9,0-1.9-0.3-2.5-1.1c-0.6-0.8-1-1.9-0.9-2.9V4c0-0.7,0.1-1.4,0.4-2.1c0.3-0.6,0.7-1.1,1.2-1.4
				C50.6,0.2,51.2,0,51.9,0c0.8,0,1.7,0.2,2.3,0.8c0.6,0.6,1,1.3,1,2.1h-1.7c0-0.4-0.2-0.8-0.4-1.2c-0.3-0.3-0.7-0.4-1.2-0.4
				c-0.5,0-1,0.2-1.3,0.6c-0.3,0.6-0.5,1.2-0.4,1.9v0.6c-0.1,0.7,0.1,1.3,0.4,1.9c0.3,0.4,0.8,0.7,1.3,0.6c0.4,0,0.8-0.1,1.2-0.4
				c0.3-0.3,0.4-0.7,0.4-1.1L55.1,5.6z M65.6,6.6h-3l-0.6,1.7h-1.8l3.1-8.2h1.6L68,8.3h-1.8L65.6,6.6z M63.1,5.3h2.1l-1-3.1
				L63.1,5.3z M75.7,0.1l2.1,6l2.1-6h2.2v8.2h-1.7V6.1l0.2-3.9l-2.2,6.1h-1.2L75,2.2l0.2,3.9v2.2h-1.7V0.1L75.7,0.1z M90,5.4v2.9
				h-1.7V0.1h3.2c0.6,0,1.1,0.1,1.6,0.3c0.4,0.2,0.8,0.5,1.1,1c0.3,0.4,0.4,0.9,0.4,1.4c0,0.7-0.3,1.4-0.8,1.9
				c-0.7,0.5-1.5,0.7-2.3,0.7L90,5.4z M90,4.1h1.5c0.4,0,0.7-0.1,1-0.3c0.2-0.2,0.4-0.6,0.4-0.9c0-0.4-0.1-0.7-0.4-1
				c-0.3-0.3-0.6-0.4-1-0.4H90L90,4.1z"/>
		</g>
	</g>
	<path class="st1" d="M25.2,118.5c-1.3,1.5-3,2.6-4.9,3.2c-2.2,0.8-4.6,1.2-7,1.1c-2.5,0.1-4.9-0.6-7-1.8c-2-1.2-3.7-3-4.7-5.1
		c-1.1-2.5-1.7-5.1-1.7-7.8v-2.1c-0.1-2.8,0.5-5.5,1.6-8c0.9-2.1,2.5-4,4.5-5.2c2.1-1.2,4.5-1.9,6.9-1.8c3.7,0,6.5,0.9,8.6,2.6
		c2.2,2,3.5,4.7,3.7,7.6H19c-0.1-1.5-0.8-2.9-1.9-3.9c-1.1-0.9-2.6-1.3-4-1.2c-2-0.1-3.8,0.8-4.9,2.4c-1.1,1.6-1.7,4-1.7,7.3v2
		c0,3.2,0.6,5.7,1.8,7.3c1.3,1.7,3.3,2.6,5.4,2.5c2.4,0,4.1-0.5,5.1-1.5v-5.3h-5.8v-4.7h12.2L25.2,118.5z M29,110.7
		c0-2.1,0.4-4.2,1.3-6.1c0.8-1.7,2.1-3.2,3.8-4.1c1.7-1,3.7-1.5,5.7-1.5c2.8-0.1,5.5,0.9,7.6,2.8c2,2.1,3.2,4.8,3.3,7.7l0,1.6
		c0.2,3.1-0.9,6.1-3,8.5c-2,2.2-4.9,3.3-7.9,3.2c-3,0.1-5.9-1-7.9-3.2c-2-2.1-3-5-3-8.7L29,110.7z M35.2,111.1
		c-0.1,1.8,0.3,3.5,1.2,5c0.8,1.1,2.1,1.8,3.5,1.7c1.4,0.1,2.7-0.6,3.5-1.7c0.8-1.1,1.3-3,1.3-5.5c0.1-1.7-0.3-3.5-1.3-5
		c-0.8-1.2-2.1-1.8-3.5-1.8c-1.4-0.1-2.7,0.6-3.5,1.8C35.5,107.4,35,109.3,35.2,111.1L35.2,111.1z M71,114.3
		c0.1-1.1-0.4-2.1-1.3-2.8c-1.4-0.9-3-1.6-4.6-2c-1.8-0.6-3.6-1.3-5.2-2.1c-3.5-1.9-5.3-4.5-5.3-7.7c0-1.6,0.5-3.2,1.4-4.5
		c1-1.4,2.4-2.4,4.1-3.1C62,91.4,64,91,66,91.1c2,0,4,0.4,5.9,1.2c1.6,0.7,3,1.9,4,3.4c1,1.5,1.5,3.2,1.4,5H71
		c0.1-1.2-0.4-2.5-1.3-3.3c-1.1-0.8-2.4-1.3-3.8-1.2c-1.3-0.1-2.6,0.3-3.6,1c-0.8,0.6-1.3,1.6-1.3,2.6c0,1.1,0.6,2,1.5,2.5
		c1.4,0.8,2.9,1.5,4.5,1.9c3.6,1.1,6.3,2.4,7.9,4.1c1.6,1.6,2.5,3.8,2.5,6c0.1,2.5-1,4.8-3,6.3c-2.4,1.6-5.3,2.4-8.2,2.3
		c-2.2,0-4.5-0.4-6.5-1.3c-1.8-0.7-3.3-2-4.5-3.6c-1-1.6-1.6-3.4-1.5-5.3h6.4c0,3.4,2,5.1,6.1,5.1c1.2,0.1,2.5-0.3,3.5-0.9
		C70.6,116.3,71.1,115.3,71,114.3L71,114.3z M88.7,93.8v5.6h3.9v4.5h-3.9v11.5c-0.1,0.6,0.1,1.3,0.5,1.8c0.5,0.4,1.2,0.6,1.9,0.6
		c0.6,0,1.2,0,1.8-0.1v4.7c-1.2,0.4-2.5,0.6-3.7,0.6c-4.3,0-6.5-2.2-6.6-6.5v-12.4h-3.4v-4.5h3.4v-5.6L88.7,93.8z M109.3,122.4
		c-0.3-0.6-0.5-1.3-0.6-2.1c-1.5,1.6-3.6,2.6-5.8,2.5c-2,0.1-4-0.6-5.6-2c-1.4-1.2-2.3-3-2.2-4.9c-0.1-2.2,0.9-4.3,2.7-5.6
		c1.8-1.3,4.4-2,7.8-2h2.8V107c0-0.9-0.2-1.8-0.8-2.5c-0.7-0.7-1.6-1-2.6-1c-0.9-0.1-1.7,0.2-2.4,0.7c-0.6,0.5-0.9,1.3-0.9,2h-6.1
		c0-1.3,0.4-2.6,1.2-3.7c0.9-1.2,2.1-2.1,3.5-2.7c1.6-0.7,3.3-1,5.1-1c2.4-0.1,4.8,0.6,6.7,2.1c1.7,1.5,2.6,3.7,2.5,6v10
		c-0.1,1.7,0.2,3.4,0.9,4.9v0.4L109.3,122.4z M104.2,118.1c0.9,0,1.7-0.2,2.5-0.6c0.7-0.4,1.3-0.9,1.7-1.6V112h-2.3
		c-3.1,0-4.7,1.1-4.9,3.2l0,0.4c0,0.7,0.3,1.4,0.8,1.9C102.7,117.9,103.4,118.2,104.2,118.1z M128.9,117.9c1,0,2-0.3,2.8-0.9
		c0.7-0.6,1.1-1.5,1.1-2.5h5.8c0,1.5-0.4,3-1.3,4.3c-0.8,1.3-2,2.3-3.4,3c-1.5,0.7-3.1,1.1-4.8,1.1c-2.9,0.1-5.8-1-7.8-3.1
		c-1.9-2.1-2.8-5-2.8-8.7v-0.4c-0.2-3.1,0.9-6.1,2.8-8.5c2-2.2,4.8-3.3,7.8-3.2c2.5-0.1,5,0.8,6.9,2.5c1.8,1.7,2.7,4.1,2.6,6.5h-5.8
		c0-1.1-0.4-2.1-1.1-2.9c-0.7-0.8-1.8-1.2-2.8-1.1c-1.3-0.1-2.5,0.5-3.2,1.6c-0.7,1-1.1,2.7-1.1,5.1v0.6c0,2.4,0.4,4.1,1.1,5.1
		C126.4,117.4,127.6,118,128.9,117.9L128.9,117.9z M150.4,113.2l-2.2,2.2v7H142V89.8h6.1v18.1l1.2-1.5l5.9-6.9h7.4l-8.3,9.6l9,13.4
		h-7.1L150.4,113.2z"/>
</g>
</svg>
