<?xml version="1.0" encoding="utf-8"?>
<!-- Generator: Adobe Illustrator 24.2.3, SVG Export Plug-In . SVG Version: 6.00 Build 0)  -->
<svg version="1.1" id="Layer_1" xmlns="http://www.w3.org/2000/svg" xmlns:xlink="http://www.w3.org/1999/xlink" x="0px" y="0px"
	 viewBox="0 0 235.6 147.5" style="enable-background:new 0 0 235.6 147.5;" xml:space="preserve">
<style type="text/css">
	.st0{opacity:0.5;}
	.st1{fill:#FFFFFF;}
	.st2{fill:#FD951F;}
</style>
<g transform="translate(70.674 139.039)" class="st0">
	<g transform="translate(0 0)">
		<path class="st1" d="M0,8.3V0.1h2.9c0.8-0.1,1.6,0.1,2.3,0.6c0.5,0.4,0.8,1,0.8,1.7c0,0.4-0.1,0.7-0.3,1.1C5.4,3.7,5.1,4,4.8,4.1
			c0.4,0.1,0.8,0.3,1,0.6C6,5.1,6.1,5.5,6.1,5.9c0,0.7-0.2,1.4-0.8,1.8C4.7,8.2,4,8.4,3.2,8.3L0,8.3z M1.7,4.8V7h1.5
			c0.3,0,0.7-0.1,0.9-0.3c0.2-0.2,0.4-0.5,0.3-0.8c0.1-0.6-0.3-1.1-0.9-1.1c-0.1,0-0.2,0-0.3,0L1.7,4.8z M1.7,3.6H3
			c0.9,0,1.3-0.4,1.3-1c0-0.3-0.1-0.6-0.3-0.8c-0.3-0.2-0.7-0.3-1-0.2H1.7L1.7,3.6z M18.8,4.4c0,0.7-0.1,1.5-0.4,2.1
			c-0.3,0.6-0.7,1.1-1.2,1.4c-0.6,0.3-1.2,0.5-1.8,0.5c-0.6,0-1.3-0.2-1.8-0.5c-0.5-0.3-1-0.8-1.2-1.4c-0.3-0.7-0.5-1.4-0.4-2.1V4.1
			c0-0.7,0.1-1.5,0.4-2.1c0.3-0.6,0.7-1.1,1.2-1.4C14.1,0.2,14.7,0,15.3,0c0.6,0,1.3,0.2,1.8,0.5c0.5,0.3,1,0.8,1.2,1.4
			c0.3,0.7,0.5,1.4,0.4,2.1L18.8,4.4z M17.1,4c0-0.7-0.1-1.4-0.5-2c-0.3-0.4-0.8-0.7-1.3-0.7c-0.5,0-1,0.2-1.3,0.7
			c-0.3,0.6-0.5,1.3-0.5,1.9v0.4c0,0.7,0.1,1.4,0.5,2c0.3,0.5,0.8,0.7,1.3,0.7c0.5,0,1-0.2,1.3-0.7c0.3-0.6,0.5-1.3,0.5-2V4z
			 M31.5,4.4c0,0.7-0.1,1.5-0.4,2.1c-0.3,0.6-0.7,1.1-1.2,1.4c-0.6,0.3-1.2,0.5-1.8,0.5c-0.6,0-1.3-0.2-1.8-0.5
			c-0.5-0.3-1-0.8-1.2-1.4c-0.3-0.7-0.5-1.4-0.4-2.1V4.1c0-0.7,0.1-1.5,0.4-2.1c0.3-0.6,0.7-1.1,1.2-1.4C26.8,0.2,27.4,0,28,0
			c0.6,0,1.3,0.2,1.8,0.5c0.5,0.3,1,0.8,1.2,1.4c0.3,0.7,0.5,1.4,0.4,2.1L31.5,4.4z M29.8,4c0-0.7-0.1-1.4-0.5-2
			c-0.3-0.4-0.8-0.7-1.3-0.7c-0.5,0-1,0.2-1.3,0.7c-0.3,0.6-0.5,1.3-0.5,1.9v0.4c0,0.7,0.1,1.4,0.5,2C27,6.8,27.5,7.1,28,7.1
			c0.5,0,1-0.2,1.3-0.7c0.3-0.6,0.5-1.3,0.5-2V4z M43.2,1.5h-2.5v6.9H39V1.5h-2.5V0.1h6.7L43.2,1.5z M55.1,5.6c0,0.8-0.4,1.6-1,2.1
			c-0.7,0.5-1.5,0.8-2.3,0.8c-0.9,0-1.9-0.3-2.5-1.1c-0.6-0.8-1-1.9-0.9-2.9V4c0-0.7,0.1-1.4,0.4-2.1c0.3-0.6,0.7-1.1,1.2-1.4
			C50.6,0.2,51.2,0,51.9,0c0.8,0,1.7,0.2,2.3,0.8c0.6,0.6,1,1.3,1,2.1h-1.7c0-0.4-0.2-0.8-0.4-1.2c-0.3-0.3-0.7-0.4-1.2-0.4
			c-0.5,0-1,0.2-1.3,0.6c-0.3,0.6-0.5,1.2-0.4,1.9v0.6c-0.1,0.7,0.1,1.3,0.4,1.9c0.3,0.4,0.8,0.7,1.3,0.6c0.4,0,0.8-0.1,1.2-0.4
			c0.3-0.3,0.4-0.7,0.4-1.1L55.1,5.6z M65.6,6.6h-3l-0.6,1.7h-1.8l3.1-8.2h1.6L68,8.3h-1.8L65.6,6.6z M63.1,5.3h2.1l-1-3.1L63.1,5.3
			z M75.7,0.1l2.1,6l2.1-6h2.2v8.2h-1.7V6.1l0.2-3.9l-2.2,6.1h-1.2L75,2.2l0.2,3.9v2.2h-1.7V0.1L75.7,0.1z M90,5.4v2.9h-1.7V0.1h3.2
			c0.6,0,1.1,0.1,1.6,0.3c0.4,0.2,0.8,0.5,1.1,1c0.3,0.4,0.4,0.9,0.4,1.4c0,0.7-0.3,1.4-0.8,1.9c-0.7,0.5-1.5,0.7-2.3,0.7L90,5.4z
			 M90,4.1h1.5c0.4,0,0.7-0.1,1-0.3c0.2-0.2,0.4-0.6,0.4-0.9c0-0.4-0.1-0.7-0.4-1c-0.3-0.3-0.6-0.4-1-0.4H90L90,4.1z"/>
	</g>
</g>
<g transform="translate(86.439 0)">
	<path class="st2" d="M31.1,71.1c-0.2,0-0.4,0-0.7-0.1L6.1,63.3c-0.8-0.3-1.5-1-1.5-1.9L0,2.4C-0.1,1.2,0.8,0.1,2,0
		c0.1,0,0.1,0,0.2,0H60c1.2,0,2.2,1,2.2,2.2c0,0.1,0,0.1,0,0.2l-4.6,59c-0.1,0.9-0.7,1.6-1.5,1.9L31.7,71
		C31.5,71.1,31.3,71.1,31.1,71.1z M20.7,42.5c-0.1,0-0.2,0-0.2,0l-0.1,0.1c-0.9,0.3-1.7,1.1-1.9,2l-2.4,8.7c-0.1,0.1,0,0.3,0.1,0.3
		c0,0,0.1,0,0.1,0c0,0,0,0,0.1,0c0.1,0,0.2,0,0.2-0.1l6.6-6.1c0.7-0.7,1-1.6,0.9-2.6l-0.2-0.2c0-0.2-0.2-0.5-0.4-0.6
		c-0.4-0.2-0.8-0.4-1.2-0.7c-0.4-0.2-0.8-0.5-1.2-0.8C21,42.6,20.9,42.5,20.7,42.5z M20.8,35C20.8,35,20.8,35,20.8,35
		c-0.1,0-0.1,0-0.1,0.1v0.1c0,0.2,0,0.5-0.1,0.7c0,0.1,0,0.2,0.1,0.2l1.1,1.8c0.1,0.2,0.2,0.4,0.1,0.6l-0.8,3
		c-0.1,0.1,0,0.2,0.1,0.3c0.5,0.4,1,0.7,1.5,1c0.5,0.3,1.1,0.6,1.6,0.9c0,0,0.1,0,0.1,0c0.1,0,0.2,0,0.2-0.1l2.3-2.1
		c0.2-0.1,0.4-0.2,0.6-0.2l2.1,0.2h0c0.1,0,0.1,0,0.2-0.1l0.6-0.3c0,0,0-0.1,0-0.1c0-0.1,0-0.1-0.1-0.2c-0.9-0.6-4.8-2.9-4.8-3h0
		C25.3,37.8,21.7,35.6,20.8,35C20.9,35,20.8,35,20.8,35L20.8,35z M33.1,34c0.2,0,0.4,0.1,0.5,0.2l3.5,2.1c0.1,0,0.1,0,0.2,0
		c0.1,0,0.2,0,0.2-0.1l8.7-11.8c0.3-0.3,0.4-0.7,0.3-1c-0.1-0.2-0.3-0.4-0.5-0.5H46l-2.1-0.3c-0.1,0-0.1,0-0.1-0.1
		c-0.1-0.1-0.2-0.2-0.1-0.3c0,0,0,0,0-0.1c0.7-1,2.8-3.8,2.8-3.8c0.2-0.2,0.2-0.5,0.1-0.7c0,0,0,0-0.1-0.1c-0.1-0.1-0.3-0.2-0.5-0.2
		L42,16.8c-0.4-0.1-0.8,0.1-1,0.4l-2.2,3c-0.3,0.4-0.3,1.1,0.2,1.4c0,0,0,0,0,0c0,0,0,0.1,0,0.1c0,0,0,0,0,0c0,0,0,0,0,0
		c0,0,0,0,0,0l-1.1-0.2l-1.6-0.2c-0.4-0.1-0.8,0.1-1.1,0.5l-6.5,8.9c0,0.1-0.1,0.1-0.2,0.1h0c-0.1,0-0.1,0-0.2-0.1L22,27
		c-0.4-0.2-0.9-0.1-1.2,0.3c0,0,0,0,0,0c-0.2,0.4-0.1,1,0.3,1.2l0.2,0.1c0.1,0.1,0.1,0.1,0.1,0.2l-0.2,1.3c0,0.1,0,0.1-0.1,0.1
		c0,0,0,0-0.1,0H21l-0.9-0.5c-0.7-0.5-1.7-0.2-2.1,0.5c0,0,0,0,0,0c-0.5,0.6-0.4,1.5,0.2,2c0,0,0,0,0,0c0.1,0.1,0.2,0.1,0.2,0.2
		l4.7,2.9c1.5,1,3.6,1,5-0.2c0.3-0.3,0.8-0.5,1.2-0.5c0.3,0,0.7,0.1,0.9,0.3c0.4,0.2,0.8,0.2,1.2,0l1.2-0.7
		C32.7,34.1,32.9,34,33.1,34L33.1,34z"/>
</g>
<path class="st1" d="M6.4,119h13.5v5.1H0V93.2h6.4L6.4,119z M36.5,124.1c-0.3-0.6-0.5-1.3-0.6-2.1c-1.5,1.6-3.6,2.6-5.8,2.5
	c-2,0.1-4-0.6-5.6-2c-1.4-1.2-2.3-3-2.2-4.9c-0.1-2.2,0.9-4.3,2.7-5.6c1.8-1.3,4.4-2,7.8-2h2.8v-1.3c0-0.9-0.2-1.8-0.8-2.5
	c-0.7-0.7-1.6-1-2.6-1c-0.9-0.1-1.7,0.2-2.4,0.7c-0.6,0.5-0.9,1.3-0.9,2h-6.1c0-1.3,0.4-2.6,1.2-3.7c0.9-1.2,2.1-2.1,3.5-2.7
	c1.6-0.7,3.3-1,5.1-1c2.4-0.1,4.8,0.6,6.7,2.1c1.7,1.5,2.6,3.7,2.5,6v10c-0.1,1.7,0.2,3.4,0.9,4.9v0.4L36.5,124.1z M31.4,119.8
	c0.9,0,1.7-0.2,2.5-0.6c0.7-0.4,1.3-0.9,1.7-1.6v-3.9h-2.3c-3.1,0-4.7,1.1-4.9,3.2l0,0.4c0,0.7,0.3,1.4,0.8,1.9
	C29.8,119.6,30.6,119.9,31.4,119.8L31.4,119.8z M60.2,121.8c-1.5,1.9-3.9,2.9-6.3,2.8c-2.1,0.1-4.2-0.6-5.6-2.1
	c-1.3-1.4-2-3.5-2-6.2v-15.1h6.1V116c0,2.4,1.1,3.6,3.3,3.6c2.1,0,3.5-0.7,4.3-2.2v-16.3h6.2v23h-5.8L60.2,121.8z M76.5,101.1
	l0.2,2.7c1.6-2,4-3.2,6.6-3.1c2-0.2,4.1,0.6,5.4,2.1c1.2,1.4,1.8,3.6,1.8,6.4v14.8h-6.1v-14.7c0.1-1-0.2-2-0.8-2.8
	c-0.8-0.7-1.8-1-2.8-0.9c-1.6-0.1-3.1,0.8-3.9,2.2v16.2h-6.1v-23L76.5,101.1z M104.7,119.6c1,0,2-0.3,2.8-0.9
	c0.7-0.6,1.1-1.5,1.1-2.5h5.8c0,1.5-0.4,3-1.3,4.3c-0.8,1.3-2,2.3-3.4,3c-1.5,0.7-3.1,1.1-4.8,1.1c-2.9,0.1-5.8-1-7.8-3.1
	c-1.9-2.1-2.8-5-2.8-8.7v-0.4c-0.2-3.1,0.9-6.1,2.8-8.5c2-2.2,4.8-3.3,7.8-3.2c2.5-0.1,5,0.8,6.9,2.5c1.8,1.7,2.7,4.1,2.6,6.5h-5.8
	c0-1.1-0.4-2.1-1.1-2.9c-0.7-0.8-1.8-1.2-2.8-1.1c-1.3-0.1-2.5,0.5-3.2,1.6c-0.7,1-1.1,2.7-1.1,5.1v0.6c0,2.4,0.4,4.1,1.1,5.1
	C102.2,119.1,103.4,119.7,104.7,119.6z M123.8,103.6c1.5-1.9,3.7-3,6.1-2.9c5,0,7.5,2.9,7.6,8.7v14.7h-6.1v-14.6
	c0.1-1-0.2-2.1-0.8-2.9c-0.8-0.7-1.8-1-2.8-0.9c-1.6-0.1-3.1,0.7-3.9,2.1v16.3h-6.1V91.5h6.1L123.8,103.6z M142.6,124.1V93.2h10.8
	c3.8,0,6.6,0.7,8.5,2.2c2,1.5,3.1,3.9,2.9,6.3c0,1.4-0.4,2.8-1.2,4c-0.8,1.2-1.9,2.1-3.2,2.5c1.5,0.3,2.8,1.2,3.7,2.4
	c0.9,1.3,1.4,2.8,1.4,4.4c0.2,2.6-0.9,5.1-2.8,6.8c-1.9,1.5-4.6,2.3-8.1,2.3L142.6,124.1z M149,110.7v8.3h5.5
	c1.3,0.1,2.5-0.3,3.5-1.1c0.9-0.7,1.3-1.8,1.3-3c0-2.8-1.5-4.3-4.4-4.3L149,110.7z M149,106.2h4.7c3.2-0.1,4.8-1.3,4.8-3.8
	c0.1-1.1-0.3-2.3-1.2-3c-1.2-0.7-2.5-1-3.9-0.9H149V106.2z M183.3,124.1c-0.3-0.6-0.5-1.3-0.6-2.1c-1.5,1.6-3.6,2.6-5.8,2.5
	c-2,0.1-4-0.6-5.6-2c-1.4-1.2-2.3-3-2.2-4.9c-0.1-2.2,0.9-4.3,2.7-5.6c1.8-1.3,4.4-2,7.8-2h2.8v-1.3c0-0.9-0.2-1.8-0.8-2.5
	c-0.7-0.7-1.6-1-2.6-1c-0.9-0.1-1.7,0.2-2.4,0.7c-0.6,0.5-0.9,1.3-0.9,2h-6.1c0-1.3,0.4-2.6,1.2-3.7c0.9-1.2,2.1-2.1,3.5-2.7
	c1.6-0.7,3.3-1,5.1-1c2.4-0.1,4.8,0.6,6.7,2.1c1.7,1.5,2.6,3.7,2.5,6v10c-0.1,1.7,0.2,3.4,0.9,4.9v0.4L183.3,124.1z M178.2,119.9
	c0.9,0,1.7-0.2,2.5-0.6c0.7-0.4,1.3-0.9,1.7-1.6v-4h-2.3c-3.1,0-4.7,1.1-4.9,3.2l0,0.4c0,0.7,0.3,1.4,0.8,1.9
	C176.6,119.6,177.4,119.9,178.2,119.9L178.2,119.9z M205.7,117.8c0-0.8-0.4-1.4-1.1-1.8c-1.1-0.6-2.3-1-3.6-1.2
	c-5.5-1.1-8.2-3.5-8.2-7c0-2,0.9-3.9,2.5-5.1c1.9-1.4,4.3-2.2,6.6-2c2.5-0.1,5,0.6,7,2.1c1.7,1.3,2.7,3.2,2.6,5.4h-6.1
	c0-0.8-0.3-1.6-0.8-2.2c-0.7-0.6-1.7-0.9-2.7-0.9c-0.9-0.1-1.7,0.2-2.4,0.7c-0.5,0.4-0.9,1.1-0.8,1.8c0,0.7,0.4,1.3,1,1.6
	c1,0.5,2.1,0.9,3.3,1.1c1.3,0.2,2.6,0.6,3.9,1c3.2,1.2,4.9,3.2,4.9,6.2c0,2-1,4-2.7,5.1c-2.1,1.4-4.5,2.1-7,1.9
	c-1.8,0-3.5-0.3-5.1-1c-1.4-0.6-2.6-1.6-3.5-2.8c-0.8-1.1-1.3-2.5-1.3-3.9h5.8c0,1,0.4,1.9,1.2,2.5c0.9,0.6,1.9,0.9,3,0.9
	c0.9,0.1,1.9-0.2,2.7-0.7C205.4,119.1,205.7,118.5,205.7,117.8L205.7,117.8z M226.2,124.5c-3,0.1-6-1-8.2-3.1
	c-2.2-2.2-3.3-5.2-3.2-8.3v-0.6c0-2.1,0.4-4.3,1.3-6.2c0.8-1.7,2.1-3.2,3.8-4.2c1.7-1,3.6-1.5,5.6-1.5c2.8-0.1,5.5,0.9,7.4,3
	c1.8,2,2.7,4.8,2.7,8.4v2.5H221c0.1,1.4,0.8,2.7,1.8,3.6c1,0.9,2.4,1.4,3.8,1.4c2.2,0.1,4.2-0.9,5.5-2.6l3,3.4c-1,1.3-2.2,2.4-3.7,3
	C229.8,124.2,228,124.6,226.2,124.5L226.2,124.5z M225.5,105.7c-1.1,0-2.2,0.4-3,1.2c-0.8,1-1.3,2.2-1.5,3.5h8.5V110
	c0-1.2-0.3-2.3-1.1-3.2C227.7,106,226.6,105.6,225.5,105.7L225.5,105.7z"/>
</svg>
