<?xml version="1.0" encoding="utf-8"?>
<!-- Generator: Adobe Illustrator 24.2.3, SVG Export Plug-In . SVG Version: 6.00 Build 0)  -->
<svg version="1.1" id="Layer_1" xmlns="http://www.w3.org/2000/svg" xmlns:xlink="http://www.w3.org/1999/xlink" x="0px" y="0px"
	 viewBox="0 0 133.8 141.9" style="enable-background:new 0 0 133.8 141.9;" xml:space="preserve">
<style type="text/css">
	.st0{opacity:0.5;}
	.st1{fill:#FFFFFF;}
	.st2{fill:#8257E5;}
</style>
<g transform="translate(0)">
	<g transform="translate(0 87.283)">
		<g transform="translate(31.178 46.023)" class="st0">
			<path class="st1" d="M6.8,5.7c0,0.8-0.4,1.6-1,2.1C5.2,8.4,4.3,8.6,3.4,8.6c-1,0-1.9-0.4-2.5-1.1c-0.7-0.8-1-1.9-0.9-3V4
				c0-0.7,0.1-1.5,0.4-2.1c0.3-0.6,0.7-1.1,1.2-1.4C2.2,0.2,2.8,0,3.5,0c0.8,0,1.7,0.2,2.3,0.8c0.6,0.6,1,1.3,1,2.2H5.1
				c0-0.4-0.2-0.9-0.5-1.2C4.3,1.5,3.9,1.4,3.5,1.4C3,1.4,2.5,1.6,2.2,2C1.9,2.6,1.7,3.3,1.7,3.9v0.6c0,0.7,0.1,1.4,0.4,2
				C2.4,7,2.9,7.2,3.5,7.2c0.4,0,0.9-0.1,1.2-0.4c0.3-0.3,0.5-0.7,0.5-1.1L6.8,5.7z M19.6,0.1v5.5c0,0.8-0.3,1.6-0.9,2.2
				c-0.6,0.6-1.5,0.8-2.3,0.8c-0.8,0-1.7-0.2-2.3-0.8c-0.6-0.5-0.9-1.3-0.9-2.1V0.1h1.7v5.5c0,0.4,0.1,0.9,0.4,1.2
				c0.3,0.3,0.7,0.4,1.1,0.4c1,0,1.5-0.5,1.5-1.5V0.1H19.6z M29.5,5.4h-1.4v3.1h-1.7V0.1h3.1c0.8-0.1,1.6,0.2,2.3,0.7
				c0.5,0.5,0.8,1.2,0.8,1.9c0,0.5-0.1,1-0.4,1.4c-0.3,0.4-0.7,0.7-1.1,0.9l1.8,3.4v0.1H31L29.5,5.4z M28.1,4h1.4
				c0.4,0,0.7-0.1,1-0.3c0.2-0.2,0.4-0.6,0.4-0.9c0-0.3-0.1-0.7-0.3-0.9c-0.3-0.2-0.7-0.4-1-0.3h-1.4L28.1,4z M43.6,6.3
				c0-0.3-0.1-0.6-0.3-0.8C42.8,5.3,42.4,5.1,42,5c-0.5-0.1-1-0.3-1.4-0.6c-0.8-0.4-1.4-1.2-1.4-2.1c0-0.4,0.1-0.9,0.4-1.2
				c0.3-0.4,0.7-0.7,1.1-0.8C41.1,0.1,41.7,0,42.2,0c0.6,0,1.1,0.1,1.6,0.3c0.4,0.2,0.8,0.5,1.1,0.9c0.3,0.4,0.4,0.9,0.4,1.3h-1.7
				c0-0.3-0.1-0.7-0.4-0.9c-0.3-0.2-0.7-0.3-1-0.3c-0.3,0-0.7,0.1-1,0.3c-0.2,0.2-0.4,0.4-0.3,0.7c0,0.3,0.2,0.5,0.4,0.7
				c0.4,0.2,0.8,0.4,1.2,0.5c0.8,0.2,1.5,0.6,2.1,1.1c0.4,0.4,0.7,1,0.7,1.6c0,0.7-0.3,1.3-0.8,1.7c-0.7,0.4-1.4,0.7-2.2,0.6
				c-0.6,0-1.2-0.1-1.8-0.3c-0.5-0.2-0.9-0.5-1.2-1c-0.3-0.4-0.4-0.9-0.4-1.4h1.7c0,0.9,0.6,1.4,1.7,1.4c0.3,0,0.7-0.1,1-0.3
				C43.4,6.8,43.6,6.6,43.6,6.3L43.6,6.3z M58.7,4.5c0,0.7-0.1,1.5-0.4,2.2C58,7.2,57.5,7.7,57,8.1c-0.6,0.3-1.2,0.5-1.9,0.5
				c-0.7,0-1.3-0.2-1.9-0.5c-0.6-0.3-1-0.8-1.3-1.4c-0.3-0.7-0.5-1.4-0.5-2.1V4.1c0-0.7,0.1-1.5,0.4-2.2c0.3-0.6,0.7-1.1,1.3-1.4
				C53.8,0.2,54.5,0,55.1,0c0.7,0,1.3,0.2,1.9,0.5c0.6,0.3,1,0.8,1.3,1.4c0.3,0.7,0.5,1.4,0.4,2.2L58.7,4.5z M56.9,4.1
				c0-0.7-0.1-1.4-0.5-2c-0.3-0.4-0.8-0.7-1.3-0.7c-0.5,0-1,0.2-1.3,0.7c-0.4,0.6-0.5,1.3-0.5,2v0.4c0,0.7,0.1,1.4,0.5,2
				c0.3,0.5,0.8,0.7,1.4,0.7c0.5,0,1-0.2,1.3-0.7c0.3-0.6,0.5-1.3,0.5-2L56.9,4.1z M69.6,6.3c0-0.3-0.1-0.6-0.3-0.8
				C68.9,5.3,68.5,5.1,68,5c-0.5-0.1-1-0.3-1.4-0.6c-0.8-0.3-1.4-1.2-1.4-2.1c0-0.4,0.1-0.9,0.4-1.2c0.3-0.4,0.7-0.7,1.1-0.8
				C67.2,0.1,67.7,0,68.3,0c0.6,0,1.1,0.1,1.6,0.3c0.4,0.2,0.8,0.5,1.1,0.9c0.3,0.4,0.4,0.9,0.4,1.3h-1.7c0-0.3-0.1-0.7-0.4-0.9
				c-0.3-0.2-0.7-0.3-1-0.3c-0.3,0-0.7,0.1-1,0.3c-0.2,0.2-0.4,0.4-0.3,0.7c0,0.3,0.2,0.5,0.4,0.7c0.4,0.2,0.8,0.4,1.2,0.5
				c0.8,0.2,1.5,0.6,2.1,1.1c0.4,0.4,0.7,1,0.7,1.6c0,0.7-0.3,1.3-0.8,1.7c-0.7,0.4-1.4,0.7-2.2,0.6c-0.6,0-1.2-0.1-1.8-0.4
				c-0.5-0.2-0.9-0.5-1.2-1c-0.3-0.4-0.4-0.9-0.4-1.4h1.7c0,0.9,0.6,1.4,1.7,1.4c0.3,0,0.7-0.1,1-0.3C69.5,6.8,69.6,6.6,69.6,6.3z"
				/>
		</g>
		<path class="st1" d="M17.3,23.2c0.1-1.1-0.4-2.1-1.3-2.8c-1.4-0.9-3-1.6-4.6-2c-1.8-0.6-3.6-1.3-5.2-2.1C2.7,14.4,1,11.9,1,8.6
			c0-1.6,0.5-3.2,1.4-4.5c1-1.4,2.4-2.4,4.1-3.1C8.3,0.3,10.3,0,12.4,0c2,0,4,0.4,5.9,1.2c1.6,0.7,3,1.9,4,3.4c1,1.5,1.5,3.2,1.4,5
			h-6.4c0.1-1.2-0.4-2.5-1.3-3.3c-1.1-0.8-2.4-1.3-3.8-1.2C11,5,9.7,5.3,8.6,6.1C7.8,6.7,7.3,7.6,7.3,8.7c0,1.1,0.6,2,1.5,2.5
			c1.4,0.8,2.9,1.5,4.5,1.9c3.6,1.1,6.3,2.4,7.9,4.1c1.6,1.6,2.5,3.8,2.5,6c0.1,2.5-1,4.8-3,6.3c-2.4,1.6-5.3,2.4-8.2,2.3
			c-2.2,0-4.5-0.4-6.5-1.3c-1.8-0.7-3.3-2-4.5-3.6c-1-1.6-1.6-3.4-1.5-5.3h6.4c0,3.4,2,5.1,6.1,5.1c1.2,0.1,2.5-0.3,3.5-0.9
			C16.9,25.2,17.4,24.3,17.3,23.2z M35,2.7v5.6h3.9v4.5H35v11.5c-0.1,0.6,0.1,1.3,0.5,1.8c0.5,0.4,1.2,0.6,1.9,0.6
			c0.6,0,1.2,0,1.8-0.1v4.7c-1.2,0.4-2.5,0.6-3.7,0.6c-4.3,0-6.5-2.2-6.6-6.5V12.9h-3.4V8.4h3.4V2.7L35,2.7z M55.6,31.3
			c-0.3-0.6-0.5-1.3-0.6-2.1c-1.5,1.6-3.6,2.6-5.8,2.5c-2,0.1-4-0.6-5.6-2c-1.4-1.2-2.3-3-2.2-4.9c-0.1-2.2,0.9-4.3,2.7-5.6
			c1.8-1.3,4.4-2,7.8-2h2.8V16c0-0.9-0.2-1.8-0.8-2.5c-0.7-0.7-1.6-1-2.6-1c-0.9-0.1-1.7,0.2-2.4,0.7c-0.6,0.5-0.9,1.3-0.9,2h-6.1
			c0-1.3,0.4-2.6,1.2-3.7c0.9-1.2,2.1-2.1,3.5-2.7c1.6-0.7,3.3-1,5.1-1c2.4-0.1,4.8,0.6,6.7,2.1c1.7,1.5,2.6,3.7,2.5,6v10
			c-0.1,1.7,0.2,3.4,0.9,4.9v0.4L55.6,31.3z M50.6,27.1c0.9,0,1.7-0.2,2.5-0.6c0.7-0.4,1.3-0.9,1.7-1.6v-4h-2.3
			c-3.1,0-4.7,1.1-4.9,3.2l0,0.4c0,0.7,0.3,1.4,0.8,1.9C49,26.9,49.8,27.1,50.6,27.1z M78.5,14.1C77.8,14,77.1,14,76.3,14
			c-2.3,0-3.8,0.8-4.6,2.4v15h-6.1v-23h5.8l0.2,2.7c1-1.9,2.9-3.2,5.1-3.2c0.6,0,1.3,0.1,1.9,0.3L78.5,14.1z M89.9,2.7v5.6h3.9v4.5
			h-3.9v11.5c-0.1,0.6,0.1,1.3,0.5,1.8c0.5,0.4,1.2,0.6,1.9,0.6c0.6,0,1.2,0,1.8-0.1v4.7c-1.2,0.4-2.5,0.6-3.7,0.6
			c-4.3,0-6.5-2.2-6.6-6.5V12.9h-3.4V8.4h3.4V2.7L89.9,2.7z M107.8,31.8c-3,0.1-6-1-8.2-3.1c-2.2-2.2-3.3-5.2-3.2-8.3v-0.6
			c0-2.1,0.4-4.3,1.3-6.2c0.8-1.7,2.1-3.2,3.8-4.2c1.7-1,3.6-1.5,5.6-1.5c2.8-0.1,5.5,0.9,7.4,3c1.8,2,2.7,4.8,2.7,8.4v2.5h-14.6
			c0.1,1.4,0.8,2.7,1.8,3.6c1,0.9,2.4,1.4,3.8,1.4c2.2,0.1,4.2-0.9,5.5-2.6l3,3.4c-1,1.3-2.2,2.4-3.7,3
			C111.4,31.4,109.6,31.8,107.8,31.8L107.8,31.8z M107.1,12.9c-1.1,0-2.2,0.4-3,1.2c-0.8,1-1.3,2.2-1.5,3.5h8.5v-0.5
			c0-1.2-0.3-2.3-1.1-3.2C109.3,13.2,108.3,12.8,107.1,12.9L107.1,12.9z M133.7,14.1c-0.7-0.1-1.5-0.2-2.2-0.2
			c-2.3,0-3.8,0.8-4.6,2.4v15h-6.1v-23h5.8l0.2,2.7c1-1.9,2.9-3.2,5.1-3.2c0.6,0,1.3,0.1,1.9,0.3L133.7,14.1z"/>
	</g>
	<path class="st2" d="M89.9,61.2H44.7c-4.4,0-8-3.6-8-8V8c0-4.4,3.6-8,8-8h45.2c4.4,0,8,3.6,8,8v45.2C97.9,57.6,94.3,61.2,89.9,61.2
		z M55.5,38.2c-0.1,0-0.1,0-0.2,0l-0.1,0.1c-1,0.3-1.7,1.2-2,2.2l-2.5,9.2c-0.1,0.1-0.1,0.1,0,0.2c0,0.1,0.1,0.1,0.1,0.1h0.1
		c0.1,0,0.2,0,0.3-0.1l7-6.5c0.7-0.7,1.1-1.7,1-2.6L59,40.7c0-0.3-0.2-0.5-0.4-0.7c-0.5-0.2-0.9-0.5-1.3-0.8
		c-0.2-0.2-0.4-0.3-0.6-0.4c-0.2-0.1-0.4-0.3-0.6-0.4C55.9,38.3,55.7,38.2,55.5,38.2z M55.8,30.4C55.8,30.4,55.7,30.5,55.8,30.4
		l-0.1,0.2c0,0.2,0,0.3-0.1,0.5c0,0.1,0,0.2,0,0.3c0,0,0,0.1,0.1,0.1c0,0,0.1,0.1,0.1,0.1l1.2,1.9c0.1,0.2,0.2,0.4,0.1,0.7l-0.8,3.2
		c0,0-0.1,0.1,0,0.2c0,0.1,0.1,0.1,0.1,0.2c1,0.8,2.1,1.5,3.3,2h0c0.1,0,0.2,0,0.3-0.1l2.4-2.2c0.2-0.2,0.4-0.3,0.7-0.2l2.2,0.2
		c0,0,0.1,0,0.1-0.1s0.1-0.1,0.1-0.1h0.8c0-0.1,0-0.2-0.1-0.3c-1-0.6-5.1-3.2-5.2-3.2S56.8,31.1,55.8,30.4
		C55.8,30.5,55.8,30.4,55.8,30.4C55.8,30.4,55.8,30.4,55.8,30.4L55.8,30.4z M68.9,29.3c0.2,0,0.4,0.1,0.6,0.2l3.7,2.3h0
		c0.2,0,0.3,0,0.4-0.1l9.2-12.5c0.3-0.3,0.4-0.7,0.3-1.2c-0.1-0.3-0.3-0.4-0.6-0.5h-0.1l-2.2-0.3l-0.1-0.1c-0.1,0-0.1-0.1-0.1-0.1
		s0,0,0,0c0.2,0,0.3,0.1,0.5,0.2v-0.1c0.8-1.1,2.9-3.9,3-4.1c0.2-0.2,0.3-0.5,0.1-0.8c0,0,0,0,0,0l-0.1-0.1
		c-0.1-0.1-0.3-0.2-0.4-0.2l-4.4-0.7c-0.4,0-0.8,0.1-1.1,0.4l-2.3,3.2c-0.3,0.5-0.2,1.1,0.2,1.4c0.1,0,0.1,0,0.1,0c0,0,0,0-0.1,0.1
		c0,0,0,0-0.1,0c0,0,0,0,0,0c0,0,0,0,0,0l-1.2-0.2L72.4,16c-0.1,0-0.2,0-0.2,0c-0.4,0-0.7,0.2-1,0.5l-6.9,9.5
		c-0.1,0.1-0.2,0.2-0.2,0.2c0,0-0.1,0-0.1,0h-0.1l-6.7-4.1c-0.1-0.1-0.3-0.1-0.5-0.1c-0.3,0-0.6,0.2-0.7,0.4
		c-0.1,0.2-0.1,0.5-0.1,0.7c0,0.2,0.2,0.5,0.4,0.6l0.2,0.1c0.1,0,0.1,0.1,0.1,0.2l-0.2,1.3c0,0.1-0.1,0.1-0.1,0.2c0,0-0.1,0-0.1,0
		H56l-1-0.5c-0.2-0.2-0.5-0.2-0.8-0.2c-1,0.1-1.8,0.9-1.8,1.9c0,0.4,0.2,0.8,0.5,1l0.2,0.2l5,3.1c0.8,0.5,1.6,0.8,2.5,0.8
		c1,0,2-0.3,2.9-1c0.3-0.4,0.8-0.6,1.3-0.6c0.4,0,0.7,0.1,1,0.4c0.4,0.2,0.8,0.2,1.2,0l1.2-0.8C68.4,29.4,68.7,29.3,68.9,29.3
		L68.9,29.3z"/>
</g>
</svg>
